<svg width="900" height="900" viewBox="0 0 900 900" fill="none" xmlns="http://www.w3.org/2000/svg">
<path fill-rule="evenodd" clip-rule="evenodd" d="M316.667 180.333V90.3333V0.333282H608.333H900V290.333V580.333H809.167H718.333V380.333V180.333H517.5H316.667ZM0 898.667V539.5V180.333H33.3333H66.6667V506.167V832H392.5H718.333V865.333V898.667H359.167H0ZM210.5 448.333C185.5 457.167 173.667 475.667 172 507.833C170.333 542.833 181.333 565.667 204.833 576.833C213 580.667 216.333 581.167 231.667 581.167C251 581.167 258.833 578.667 270 569L275.833 564L269.167 557C258.833 546.333 257.667 546 250 552.167C236.833 562.833 214.667 559.5 205.5 545.5C200 537.5 198.333 529.667 198.333 513.667C198.333 497.667 200 489.833 205.5 481.833C210.167 474.833 221.833 468.667 230.833 468.667C238.167 468.667 249.5 473.333 253.167 477.5C256.5 481.667 258.5 481 267.5 471.833L275.833 463.333L270 458.333C260 449.667 250.833 446.5 234.167 445.833C222.667 445.333 217.167 446 210.5 448.333ZM299.667 484.5C304.5 468.333 319.167 452.167 333.167 448C343.333 444.833 360.667 444.667 371.167 447.833C394.667 454.833 408.667 476.833 409 507.833L409.167 521.167L365.333 521.667L321.333 522L322.5 529.167C325.167 545.167 334.333 555.5 348.333 558.5C362.167 561.5 375.667 558.167 385 549.333L389.333 545.333L397.5 553.667C406.667 563 406.5 563.5 394.167 572C384.667 578.5 371.667 582 356.5 582C320.333 582 301 564.167 296.833 527C295.333 513.833 296.667 494.5 299.667 484.5ZM382.167 495.667C381.667 485.333 375 474.833 366.167 470.5C346.167 460.833 324.333 473.833 322.833 496.167L322.5 502.833H352.5H382.5L382.167 495.667ZM470.833 447.667C449.833 454.333 440 466.833 440 486.5C440.167 499.167 444.5 508.833 453 514.5C461.5 520.167 467.333 521.667 489.167 523.833C514.667 526.333 518.333 528.667 518.333 541.833C518.333 546.167 517.167 549.167 514.667 551.5C507.333 558 502.833 559.5 488.333 559.333C473.333 559.333 461.5 555.5 454.167 548.667C450.75 545.413 450.669 545.494 442.449 553.717L441.833 554.333L433.167 563.167L439 568.167C442.167 571 449.167 575 454.5 577.167C463 580.667 467 581 487.5 581.167C509.333 581.167 511.5 580.833 520.333 576.667C537 568.833 545 557 545 539.5C545 522.667 537.5 511.5 522.333 505.5C519.5 504.333 507.833 502.5 496.5 501.333C472.833 498.833 467.333 496.5 465.667 487.833C463.167 474.333 475.833 465.833 495.833 467.5C502.5 468 510 469.833 515 472.333L523.167 476.5L531.833 467.667L540.333 459L533.167 454.833C529.167 452.5 521.333 449.333 515.833 448C504 444.833 480.167 444.667 470.833 447.667ZM578.333 580.333V513.667V447H591.667H605V513.667V580.333H591.667H578.333Z" fill="black"/>
</svg>
